<?xml version="1.0" encoding="utf-8"?>
<!-- Generator: Adobe Illustrator 16.0.0, SVG Export Plug-In . SVG Version: 6.00 Build 0)  -->
<!DOCTYPE svg PUBLIC "-//W3C//DTD SVG 1.1//EN" "http://www.w3.org/Graphics/SVG/1.1/DTD/svg11.dtd">
<svg version="1.1" id="Calque_1" xmlns="http://www.w3.org/2000/svg" xmlns:xlink="http://www.w3.org/1999/xlink" x="0px" y="0px"
	 width="595.281px" height="601px" viewBox="0 0 595.281 601" enable-background="new 0 0 595.281 601" xml:space="preserve">
<g>
	<path fill="#FFFFFF" d="M276.19,308.803L144.834,440.211h77.231c6.66,0,12.059,5.396,12.059,12.059
		c0,6.656-5.402,12.056-12.059,12.056H115.696c-3.09,0-6.174-1.156-8.537-3.521c-2.365-2.362-3.52-5.448-3.52-8.535V345.95
		c0-6.705,5.402-12.058,12.057-12.058c6.653,0,12.06,5.359,12.06,12.058v77.229l131.403-131.404c4.73-4.727,12.354-4.727,17.031,0
		C280.919,296.459,280.919,304.127,276.19,308.803z"/>
</g>
<g>
	<path fill="#FFFFFF" d="M503.641,76.387v106.371c0,6.658-5.397,12.057-12.055,12.057s-12.055-5.398-12.055-12.057V105.52
		l-130.93,130.925c-2.363,2.365-5.449,3.521-8.539,3.521c-3.086,0-6.176-1.156-8.539-3.521c-4.728-4.727-4.728-12.35,0-17.025
		L462.442,88.449h-77.229c-6.655,0-12.06-5.406-12.06-12.059c0-6.664,5.402-12.066,12.06-12.066h106.372
		c3.086,0,6.176,1.156,8.535,3.52C502.489,70.209,503.641,73.297,503.641,76.387z"/>
</g>
</svg>
