<?xml version="1.0" encoding="utf-8"?>
<!-- Generator: Adobe Illustrator 16.0.0, SVG Export Plug-In . SVG Version: 6.00 Build 0)  -->
<!DOCTYPE svg PUBLIC "-//W3C//DTD SVG 1.1//EN" "http://www.w3.org/Graphics/SVG/1.1/DTD/svg11.dtd">
<svg version="1.1" id="Calque_1" xmlns="http://www.w3.org/2000/svg" xmlns:xlink="http://www.w3.org/1999/xlink" x="0px" y="0px"
	 width="595.281px" height="591px" viewBox="0 0 595.281 591" enable-background="new 0 0 595.281 591" xml:space="preserve">
<g>
	<path fill="#FFFFFF" d="M494.108,79.623L363.182,210.547h77.233c6.657,0,12.061,5.397,12.061,12.059
		c0,6.66-5.402,12.059-12.061,12.059h-106.37c-3.089,0-6.175-1.156-8.539-3.52c-1.113-1.156-1.98-2.464-2.559-3.86
		c-0.145-0.336-0.289-0.676-0.434-1.063c-0.341-1.155-0.531-2.409-0.531-3.616V116.241c0-6.664,5.41-12.063,12.063-12.063
		c6.653,0,12.055,5.402,12.055,12.063v77.278L477.03,62.55c4.73-4.684,12.356-4.684,17.079,0
		C498.84,67.272,498.84,74.893,494.108,79.623z"/>
</g>
<g>
	<path fill="#FFFFFF" d="M273.742,295.021v106.32c0,6.66-5.404,12.06-12.06,12.06c-6.658,0-12.058-5.402-12.058-12.06v-77.235
		L118.21,455.517c-2.364,2.363-5.447,3.521-8.537,3.521c-3.09,0-6.179-1.156-8.538-3.521c-4.683-4.729-4.683-12.352,0-17.026
		l131.458-131.463h-77.281c-6.658,0-12.059-5.403-12.059-12.053c0-6.66,5.404-12.061,12.059-12.061h106.371
		c0.289,0,0.529,0.047,0.818,0.098c0.191-0.047,0.387,0,0.533,0.047c0.436,0.051,0.916,0.098,1.351,0.191
		c0.098,0,0.143,0.051,0.24,0.051c0.098,0.047,0.146,0.047,0.244,0.098c0.48,0.098,0.917,0.238,1.352,0.434
		c0.387,0.148,0.725,0.34,1.063,0.48c0.724,0.39,1.444,0.871,2.071,1.353c0.289,0.293,0.578,0.532,0.871,0.821
		c1.449,1.445,2.463,3.229,3.041,5.117c0.098,0.387,0.189,0.723,0.244,1.11C273.649,293.474,273.742,294.247,273.742,295.021z"/>
</g>
</svg>
